<?xml version="1.0" standalone="no"?>
<!DOCTYPE svg PUBLIC "-//W3C//DTD SVG 20010904//EN"
 "http://www.w3.org/TR/2001/REC-SVG-20010904/DTD/svg10.dtd">
<svg version="1.0" xmlns="http://www.w3.org/2000/svg"
 width="230.000000pt" height="230.000000pt" viewBox="0 0 230.000000 230.000000"
 preserveAspectRatio="xMidYMid meet">
<metadata>
Created by potrace 1.11, written by Peter Selinger 2001-2013
</metadata>
<g transform="translate(0.000000,230.000000) scale(0.100000,-0.100000)"
fill="#000000" stroke="none">
<path d="M1038 2239 c-15 -4 -42 -16 -60 -27 -27 -16 -143 -78 -278 -149 -14
-7 -20 -13 -15 -14 6 0 26 -1 45 -2 l35 -2 1 -55 c2 -80 2 -83 19 -76 9 3 18
-1 21 -9 4 -8 11 -12 16 -9 7 4 8 34 4 80 -6 63 -4 74 8 74 9 0 18 -12 22 -27
3 -16 7 -34 10 -41 3 -10 31 -12 121 -9 l118 4 108 54 c116 58 111 52 92 119
-3 10 17 26 66 50 39 19 72 38 74 41 11 17 -69 -2 -97 -23 -52 -38 -278 -164
-278 -154 0 13 129 97 228 148 23 12 42 25 42 28 0 4 -20 6 -44 5 -31 -2 -75
-19 -151 -59 -59 -32 -109 -55 -112 -53 -5 6 79 59 131 84 l39 18 -29 6 c-42
8 -64 -3 -198 -93 -67 -45 -114 -73 -106 -63 14 17 158 127 190 145 22 13 9
18 -22 9z"/>
<path d="M1315 2031 c-6 -4 -50 -30 -100 -56 l-90 -47 -120 -2 -120 -1 -3 -35
c-2 -19 -8 -39 -13 -45 -17 -17 -10 -57 11 -62 10 -3 22 -13 25 -22 3 -9 20
-23 38 -32 17 -9 32 -22 32 -29 0 -15 29 -28 65 -30 14 0 43 -9 65 -20 50 -24
79 -25 101 -2 10 9 23 17 29 17 16 0 115 103 116 120 2 24 4 28 22 62 27 51
25 92 -7 146 -29 48 -35 53 -51 38z m9 -123 c-17 -118 -106 -203 -204 -194
-38 4 -31 17 27 51 29 16 53 33 53 37 0 6 -82 -15 -145 -37 -11 -4 3 15 31 42
45 44 199 132 231 133 7 0 10 -12 7 -32z m-309 -98 c3 -6 -4 -10 -17 -10 -18
0 -20 2 -8 10 19 12 18 12 25 0z"/>
<path d="M1269 1496 c-3 -3 -27 -7 -54 -11 -28 -3 -70 -9 -95 -12 -25 -4 -58
-6 -75 -6 -129 4 -344 2 -372 -3 -28 -5 -33 -10 -31 -28 3 -20 10 -21 133 -26
102 -4 137 -9 158 -23 15 -9 27 -24 27 -31 0 -8 5 -16 11 -18 6 -2 11 -24 11
-48 0 -25 4 -57 10 -72 7 -18 6 -56 -2 -120 -14 -101 -14 -108 -4 -156 3 -18
2 -38 -3 -45 -5 -6 -8 -30 -6 -52 7 -78 6 -121 -2 -245 -4 -69 -9 -169 -9
-224 -1 -91 -3 -100 -23 -113 -25 -17 -30 -52 -11 -71 25 -25 -54 -57 -164
-67 -75 -7 -108 -22 -108 -51 0 -19 7 -24 36 -30 20 -4 57 -2 81 3 25 6 138
10 251 8 114 -1 224 2 245 7 22 5 58 5 87 0 28 -5 53 -6 55 -2 3 5 29 3 58 -3
53 -12 173 -14 184 -4 3 3 2 18 -1 32 -7 26 -7 26 -94 23 -86 -3 -88 -2 -151
37 -85 53 -98 83 -105 238 -2 64 -1 119 3 121 4 3 6 42 5 88 -1 46 3 111 8
144 6 32 10 64 10 69 -1 16 -10 54 -16 64 -3 4 3 25 14 46 11 22 16 41 12 44
-18 12 -21 41 -5 49 12 7 13 13 4 30 -12 22 -7 72 10 104 7 14 6 22 -6 34 -19
20 -20 74 0 100 18 24 19 50 1 57 -9 3 -17 29 -21 66 -4 34 -11 61 -15 61 -5
0 -12 9 -15 20 -6 19 -16 25 -26 16z m-274 -86 c3 -5 1 -10 -4 -10 -6 0 -11 5
-11 10 0 6 2 10 4 10 3 0 8 -4 11 -10z m99 -29 c3 -5 -5 -11 -19 -13 -26 -5
-35 6 -12 15 19 8 25 8 31 -2z m181 -31 c3 -5 -1 -10 -10 -10 -9 0 -13 5 -10
10 3 6 8 10 10 10 2 0 7 -4 10 -10z m-59 -67 c-7 -7 -26 7 -26 19 0 6 6 6 15
-2 9 -7 13 -15 11 -17z m-39 -29 c-9 -9 -28 6 -21 18 4 6 10 6 17 -1 6 -6 8
-13 4 -17z m81 -11 c1 -13 -3 -23 -9 -23 -5 0 -7 5 -4 10 3 6 1 10 -4 10 -6 0
-11 -6 -11 -14 0 -13 -39 -30 -48 -21 -10 10 9 34 23 29 10 -4 15 0 15 13 0
28 36 24 38 -4z m-113 -12 c3 -5 0 -13 -5 -16 -6 -4 7 -16 29 -27 39 -19 42
-19 67 -3 32 21 54 6 28 -19 -9 -9 -14 -20 -10 -23 3 -3 -6 -12 -21 -20 -20
-10 -29 -11 -37 -2 -8 9 -7 11 5 6 9 -3 21 3 28 15 12 19 10 19 -18 13 -21 -4
-31 -3 -31 5 0 6 -4 9 -9 6 -5 -3 -7 -14 -5 -24 5 -20 -12 -50 -23 -39 -4 4
-2 16 5 27 7 11 8 21 2 25 -5 3 -7 12 -3 20 3 10 -1 15 -15 15 -11 0 -22 -7
-26 -15 -3 -10 1 -15 12 -15 14 0 14 -2 3 -9 -22 -14 -41 9 -28 34 6 11 10 21
8 23 -3 4 23 31 31 32 4 0 9 -4 13 -9z m-35 -125 c0 -3 -4 -8 -10 -11 -5 -3
-10 -1 -10 4 0 6 5 11 10 11 6 0 10 -2 10 -4z m110 -46 c0 -5 -4 -10 -10 -10
-5 0 -10 5 -10 10 0 6 5 10 10 10 6 0 10 -4 10 -10z m60 -16 c0 -2 -7 -4 -15
-4 -8 0 -15 4 -15 10 0 5 7 7 15 4 8 -4 15 -8 15 -10z m-155 -34 c18 -7 18 -9
-10 -20 -42 -17 -75 -19 -75 -6 0 31 42 44 85 26z m122 -66 c-13 -14 -157 -41
-163 -32 -11 17 15 25 78 26 33 1 63 3 66 6 3 4 10 6 15 6 6 0 8 -3 4 -6z
m-109 -63 c10 -5 36 -6 62 -1 34 7 48 5 60 -6 20 -20 4 -32 -54 -38 -42 -5
-53 -3 -73 16 -34 32 -31 48 5 29z m-38 -16 c0 -8 5 -15 10 -15 6 0 10 -4 10
-8 0 -5 -13 -9 -30 -10 -32 -1 -38 10 -17 33 16 19 27 19 27 0z m110 -76 c0
-6 -4 -7 -10 -4 -5 3 -10 11 -10 16 0 6 5 7 10 4 6 -3 10 -11 10 -16z m40 7
c0 -2 -7 -7 -16 -10 -8 -3 -12 -2 -9 4 6 10 25 14 25 6z m-140 -15 c0 -9 -34
-21 -60 -21 -9 1 -5 7 10 15 29 16 50 19 50 6z m111 -41 c10 -6 19 -14 19 -18
0 -10 -72 -30 -127 -37 -35 -4 -44 -1 -53 15 -9 16 -7 20 12 25 13 2 39 3 58
2 20 -2 41 2 48 10 16 16 18 16 43 3z m16 -100 c10 -14 7 -15 -21 -12 -29 3
-34 1 -40 -22 -4 -15 -11 -24 -17 -21 -7 5 -6 11 1 20 8 10 6 15 -9 20 -36 11
-23 24 27 27 26 2 47 3 47 3 1 0 6 -7 12 -15z m-154 -5 c39 -4 40 -5 33 -12
-12 -13 -96 -10 -96 2 0 18 10 24 27 18 8 -3 24 -7 36 -8z m134 -37 c-3 -8 -6
-5 -6 6 -1 11 2 17 5 13 3 -3 4 -12 1 -19z m-167 -38 c0 -5 -7 -7 -15 -4 -8 4
-15 8 -15 10 0 2 7 4 15 4 8 0 15 -4 15 -10z m200 -5 c0 -8 -3 -15 -6 -15 -3
0 -12 7 -20 15 -14 13 -13 15 5 15 12 0 21 -6 21 -15z m-105 -55 c-4 -6 -10
-8 -15 -5 -4 3 -27 -2 -50 -10 -50 -17 -70 -19 -70 -5 0 6 11 10 24 10 14 0
28 5 31 10 3 6 24 10 46 10 25 0 38 -4 34 -10z m65 -25 c0 -2 -9 -3 -19 -2
-11 0 -18 5 -15 9 4 6 34 0 34 -7z m-75 -65 c-10 -11 -24 -20 -31 -20 -7 0
-17 -7 -22 -16 -5 -9 -14 -14 -21 -10 -23 15 -9 33 37 48 26 8 49 16 51 17 2
0 -4 -8 -14 -19z m40 10 c3 -5 1 -10 -4 -10 -6 0 -11 5 -11 10 0 6 2 10 4 10
3 0 8 -4 11 -10z m50 0 c3 -5 2 -10 -4 -10 -5 0 -13 5 -16 10 -3 6 -2 10 4 10
5 0 13 -4 16 -10z m-150 -80 c-3 -5 -16 -10 -28 -9 -21 0 -21 1 -2 9 28 12 37
12 30 0z m55 -33 c0 -8 -16 -22 -35 -32 -19 -11 -32 -21 -30 -24 5 -4 -26 -30
-37 -31 -4 0 4 17 18 38 14 20 32 36 39 34 7 -1 15 4 19 13 7 19 26 20 26 2z
m163 -112 c21 -44 21 -44 0 -43 -10 0 -39 -4 -65 -9 -46 -10 -46 -10 -44 16 2
18 10 27 25 29 12 2 27 12 34 23 17 28 31 23 50 -16z m-163 -3 c0 -16 -56 -41
-70 -32 -10 7 -11 10 -2 10 21 0 26 2 47 16 23 16 25 17 25 6z m-70 -72 c0 -5
-5 -10 -11 -10 -5 0 -7 5 -4 10 3 6 8 10 11 10 2 0 4 -4 4 -10z"/>
</g>
</svg>
